<mxfile host="app.diagrams.net" modified="2021-10-03T08:29:22.853Z" agent="5.0 (Windows NT 10.0; Win64; x64) AppleWebKit/537.36 (KHTML, like Gecko) Chrome/94.0.4606.61 Safari/537.36" etag="TYjHPDk_pO2ut54ZO9_z" version="15.3.5" type="github">
  <diagram id="Rgv5zHZuPDR8OHfNAvY3" name="Page-1">
    <mxGraphModel dx="1550" dy="779" grid="1" gridSize="10" guides="1" tooltips="1" connect="1" arrows="1" fold="1" page="1" pageScale="1" pageWidth="583" pageHeight="827" math="0" shadow="0">
      <root>
        <mxCell id="0" />
        <mxCell id="1" parent="0" />
        <mxCell id="jK_yG8fQtaqPO14hCNdh-1" value="告警模块" style="swimlane;startSize=23;fillColor=#0050EF;strokeColor=#000000;fontColor=#ffffff;fontSize=16;strokeWidth=3;" vertex="1" parent="1">
          <mxGeometry x="480" y="760" width="820" height="340" as="geometry" />
        </mxCell>
        <mxCell id="jK_yG8fQtaqPO14hCNdh-2" style="edgeStyle=orthogonalEdgeStyle;rounded=0;orthogonalLoop=1;jettySize=auto;html=1;entryX=1;entryY=0.5;entryDx=0;entryDy=0;entryPerimeter=0;" edge="1" parent="jK_yG8fQtaqPO14hCNdh-1" source="jK_yG8fQtaqPO14hCNdh-3" target="jK_yG8fQtaqPO14hCNdh-10">
          <mxGeometry relative="1" as="geometry" />
        </mxCell>
        <mxCell id="jK_yG8fQtaqPO14hCNdh-3" value="&lt;font style=&quot;font-size: 14px&quot;&gt;高风险视频&lt;/font&gt;" style="rounded=0;whiteSpace=wrap;html=1;" vertex="1" parent="jK_yG8fQtaqPO14hCNdh-1">
          <mxGeometry x="599.25" y="100" width="90.75" height="40" as="geometry" />
        </mxCell>
        <mxCell id="jK_yG8fQtaqPO14hCNdh-4" style="edgeStyle=orthogonalEdgeStyle;rounded=0;orthogonalLoop=1;jettySize=auto;html=1;" edge="1" parent="jK_yG8fQtaqPO14hCNdh-1" source="jK_yG8fQtaqPO14hCNdh-5" target="jK_yG8fQtaqPO14hCNdh-12">
          <mxGeometry relative="1" as="geometry" />
        </mxCell>
        <mxCell id="jK_yG8fQtaqPO14hCNdh-5" value="&lt;font style=&quot;font-size: 14px&quot;&gt;存疑视频&lt;/font&gt;" style="rounded=0;whiteSpace=wrap;html=1;" vertex="1" parent="jK_yG8fQtaqPO14hCNdh-1">
          <mxGeometry x="599.25" y="180" width="90.75" height="40" as="geometry" />
        </mxCell>
        <mxCell id="jK_yG8fQtaqPO14hCNdh-6" value="&lt;font style=&quot;font-size: 14px&quot;&gt;低风险视频&lt;/font&gt;" style="rounded=0;whiteSpace=wrap;html=1;" vertex="1" parent="jK_yG8fQtaqPO14hCNdh-1">
          <mxGeometry x="599.25" y="260" width="90.75" height="40" as="geometry" />
        </mxCell>
        <mxCell id="jK_yG8fQtaqPO14hCNdh-7" value="R&amp;gt;80%" style="text;html=1;resizable=0;autosize=1;align=center;verticalAlign=middle;points=[];fillColor=none;strokeColor=none;rounded=0;" vertex="1" parent="jK_yG8fQtaqPO14hCNdh-1">
          <mxGeometry x="700" y="100" width="60" height="20" as="geometry" />
        </mxCell>
        <mxCell id="jK_yG8fQtaqPO14hCNdh-8" value="20%&amp;lt;R&amp;lt;=80%" style="text;html=1;resizable=0;autosize=1;align=center;verticalAlign=middle;points=[];fillColor=none;strokeColor=none;rounded=0;" vertex="1" parent="jK_yG8fQtaqPO14hCNdh-1">
          <mxGeometry x="682" y="177.5" width="90" height="20" as="geometry" />
        </mxCell>
        <mxCell id="jK_yG8fQtaqPO14hCNdh-9" value="R&amp;lt;=20%" style="text;html=1;resizable=0;autosize=1;align=center;verticalAlign=middle;points=[];fillColor=none;strokeColor=none;rounded=0;" vertex="1" parent="jK_yG8fQtaqPO14hCNdh-1">
          <mxGeometry x="697" y="256" width="60" height="20" as="geometry" />
        </mxCell>
        <mxCell id="jK_yG8fQtaqPO14hCNdh-10" value="" style="sketch=0;points=[[0,0,0],[0.25,0,0],[0.5,0,0],[0.75,0,0],[1,0,0],[0,1,0],[0.25,1,0],[0.5,1,0],[0.75,1,0],[1,1,0],[0,0.25,0],[0,0.5,0],[0,0.75,0],[1,0.25,0],[1,0.5,0],[1,0.75,0]];outlineConnect=0;fontColor=#232F3E;gradientColor=#4D72F3;gradientDirection=north;fillColor=#3334B9;strokeColor=#ffffff;dashed=0;verticalLabelPosition=bottom;verticalAlign=top;align=center;html=1;fontSize=12;fontStyle=0;aspect=fixed;shape=mxgraph.aws4.resourceIcon;resIcon=mxgraph.aws4.database;" vertex="1" parent="jK_yG8fQtaqPO14hCNdh-1">
          <mxGeometry x="280" y="95" width="50" height="50" as="geometry" />
        </mxCell>
        <mxCell id="jK_yG8fQtaqPO14hCNdh-11" value="&lt;font style=&quot;font-size: 13px&quot;&gt;数字摘要，视频信息，上传信息存入数据库&lt;/font&gt;" style="text;html=1;resizable=0;autosize=1;align=center;verticalAlign=middle;points=[];fillColor=none;strokeColor=none;rounded=0;" vertex="1" parent="jK_yG8fQtaqPO14hCNdh-1">
          <mxGeometry x="335" y="100" width="260" height="20" as="geometry" />
        </mxCell>
        <mxCell id="jK_yG8fQtaqPO14hCNdh-12" value="" style="sketch=0;outlineConnect=0;fontColor=#232F3E;gradientColor=none;fillColor=#232F3E;strokeColor=none;dashed=0;verticalLabelPosition=bottom;verticalAlign=top;align=center;html=1;fontSize=12;fontStyle=0;aspect=fixed;pointerEvents=1;shape=mxgraph.aws4.user;" vertex="1" parent="jK_yG8fQtaqPO14hCNdh-1">
          <mxGeometry x="285" y="177.5" width="45" height="45" as="geometry" />
        </mxCell>
        <mxCell id="jK_yG8fQtaqPO14hCNdh-13" value="&lt;font style=&quot;font-size: 13px&quot;&gt;人工审查&lt;/font&gt;" style="text;html=1;resizable=0;autosize=1;align=center;verticalAlign=middle;points=[];fillColor=none;strokeColor=none;rounded=0;" vertex="1" parent="jK_yG8fQtaqPO14hCNdh-1">
          <mxGeometry x="425" y="177.5" width="70" height="20" as="geometry" />
        </mxCell>
        <mxCell id="jK_yG8fQtaqPO14hCNdh-14" value="" style="edgeStyle=none;shape=flexArrow;curved=1;rounded=0;orthogonalLoop=1;jettySize=auto;html=1;fontColor=#FFFFFF;endArrow=open;sourcePerimeterSpacing=8;targetPerimeterSpacing=8;strokeColor=#000000;fillColor=none;" edge="1" parent="jK_yG8fQtaqPO14hCNdh-1" source="jK_yG8fQtaqPO14hCNdh-15" target="jK_yG8fQtaqPO14hCNdh-16">
          <mxGeometry relative="1" as="geometry" />
        </mxCell>
        <mxCell id="jK_yG8fQtaqPO14hCNdh-15" value="&lt;font style=&quot;font-size: 14px&quot; color=&quot;#7f00ff&quot;&gt;可视化数据分析&lt;/font&gt;" style="sketch=0;points=[[0,0,0],[0.25,0,0],[0.5,0,0],[0.75,0,0],[1,0,0],[0,1,0],[0.25,1,0],[0.5,1,0],[0.75,1,0],[1,1,0],[0,0.25,0],[0,0.5,0],[0,0.75,0],[1,0.25,0],[1,0.5,0],[1,0.75,0]];outlineConnect=0;fontColor=#232F3E;gradientColor=#945DF2;gradientDirection=north;fillColor=#5A30B5;strokeColor=#ffffff;dashed=0;verticalLabelPosition=bottom;verticalAlign=top;align=center;html=1;fontSize=12;fontStyle=0;aspect=fixed;shape=mxgraph.aws4.resourceIcon;resIcon=mxgraph.aws4.analytics;" vertex="1" parent="jK_yG8fQtaqPO14hCNdh-1">
          <mxGeometry x="90" y="95" width="49" height="49" as="geometry" />
        </mxCell>
        <mxCell id="jK_yG8fQtaqPO14hCNdh-16" value="&lt;font style=&quot;font-size: 14px&quot; color=&quot;#009900&quot;&gt;对敏感视频取证&lt;/font&gt;" style="sketch=0;outlineConnect=0;fontColor=#232F3E;gradientColor=none;fillColor=#56C0A7;strokeColor=none;dashed=0;verticalLabelPosition=bottom;verticalAlign=top;align=center;html=1;fontSize=12;fontStyle=0;aspect=fixed;pointerEvents=1;shape=mxgraph.aws4.sagemaker_notebook;" vertex="1" parent="jK_yG8fQtaqPO14hCNdh-1">
          <mxGeometry x="96.25" y="169.07" width="36.5" height="41.87" as="geometry" />
        </mxCell>
        <mxCell id="jK_yG8fQtaqPO14hCNdh-17" value="" style="endArrow=none;dashed=1;html=1;dashPattern=1 3;strokeWidth=2;" edge="1" parent="jK_yG8fQtaqPO14hCNdh-1">
          <mxGeometry width="50" height="50" relative="1" as="geometry">
            <mxPoint x="180" y="240" as="sourcePoint" />
            <mxPoint x="50" y="90" as="targetPoint" />
            <Array as="points">
              <mxPoint x="50" y="240" />
            </Array>
          </mxGeometry>
        </mxCell>
        <mxCell id="jK_yG8fQtaqPO14hCNdh-18" value="&lt;font style=&quot;font-size: 16px&quot;&gt;数据分析与取证&lt;/font&gt;" style="text;html=1;resizable=0;autosize=1;align=center;verticalAlign=middle;points=[];fillColor=none;strokeColor=none;rounded=0;" vertex="1" parent="jK_yG8fQtaqPO14hCNdh-1">
          <mxGeometry x="49.5" y="61" width="130" height="20" as="geometry" />
        </mxCell>
        <mxCell id="jK_yG8fQtaqPO14hCNdh-19" value="" style="endArrow=none;dashed=1;html=1;dashPattern=1 3;strokeWidth=2;" edge="1" parent="1">
          <mxGeometry width="50" height="50" relative="1" as="geometry">
            <mxPoint x="660" y="1000" as="sourcePoint" />
            <mxPoint x="530" y="850" as="targetPoint" />
            <Array as="points">
              <mxPoint x="660" y="850" />
            </Array>
          </mxGeometry>
        </mxCell>
        <mxCell id="jK_yG8fQtaqPO14hCNdh-20" style="edgeStyle=orthogonalEdgeStyle;rounded=0;orthogonalLoop=1;jettySize=auto;html=1;" edge="1" parent="1" source="jK_yG8fQtaqPO14hCNdh-10">
          <mxGeometry relative="1" as="geometry">
            <mxPoint x="660" y="920" as="targetPoint" />
            <Array as="points">
              <mxPoint x="720" y="880" />
              <mxPoint x="720" y="920" />
            </Array>
          </mxGeometry>
        </mxCell>
        <mxCell id="jK_yG8fQtaqPO14hCNdh-21" style="edgeStyle=orthogonalEdgeStyle;rounded=0;orthogonalLoop=1;jettySize=auto;html=1;" edge="1" parent="1" source="jK_yG8fQtaqPO14hCNdh-12">
          <mxGeometry relative="1" as="geometry">
            <mxPoint x="660" y="930" as="targetPoint" />
            <Array as="points">
              <mxPoint x="720" y="960" />
              <mxPoint x="720" y="930" />
            </Array>
          </mxGeometry>
        </mxCell>
      </root>
    </mxGraphModel>
  </diagram>
</mxfile>
